<svg width="30" height="30" viewBox="0 0 30 30" fill="none" xmlns="http://www.w3.org/2000/svg">
<path d="M22.955 21.7049L15 29.6599L7.04501 21.7049C5.47168 20.1316 4.40023 18.127 3.96616 15.9447C3.53209 13.7624 3.75488 11.5004 4.60637 9.44478C5.45786 7.38912 6.8998 5.63212 8.74985 4.39596C10.5999 3.1598 12.775 2.5 15 2.5C17.225 2.5 19.4001 3.1598 21.2502 4.39596C23.1002 5.63212 24.5421 7.38912 25.3936 9.44478C26.2451 11.5004 26.4679 13.7624 26.0338 15.9447C25.5998 18.127 24.5283 20.1316 22.955 21.7049ZM15 18.7499C16.3261 18.7499 17.5979 18.2231 18.5355 17.2854C19.4732 16.3478 20 15.076 20 13.7499C20 12.4238 19.4732 11.1521 18.5355 10.2144C17.5979 9.27669 16.3261 8.7499 15 8.7499C13.6739 8.7499 12.4022 9.27669 11.4645 10.2144C10.5268 11.1521 10 12.4238 10 13.7499C10 15.076 10.5268 16.3478 11.4645 17.2854C12.4022 18.2231 13.6739 18.7499 15 18.7499Z" fill="#175CD3"/>
</svg>
