<svg width="20" height="20" viewBox="0 0 20 20" fill="none" xmlns="http://www.w3.org/2000/svg">
<g clip-path="url(#clip0_2629_4905)">
<path d="M10.8333 3.37915C14.5833 3.79331 17.5 6.97248 17.5 10.8333V18.3333H2.5V10.8333C2.5 6.97248 5.41667 3.79331 9.16667 3.37915V0.833313H10.8333V3.37915ZM15.8333 16.6666V10.8333C15.8333 9.28622 15.2188 7.80249 14.1248 6.70852C13.0308 5.61456 11.5471 4.99998 10 4.99998C8.4529 4.99998 6.96917 5.61456 5.87521 6.70852C4.78125 7.80249 4.16667 9.28622 4.16667 10.8333V16.6666H15.8333ZM10 15C8.89493 15 7.83512 14.561 7.05372 13.7796C6.27232 12.9982 5.83333 11.9384 5.83333 10.8333C5.83333 9.72824 6.27232 8.66844 7.05372 7.88703C7.83512 7.10563 8.89493 6.66665 10 6.66665C11.1051 6.66665 12.1649 7.10563 12.9463 7.88703C13.7277 8.66844 14.1667 9.72824 14.1667 10.8333C14.1667 11.9384 13.7277 12.9982 12.9463 13.7796C12.1649 14.561 11.1051 15 10 15ZM10 13.3333C10.663 13.3333 11.2989 13.0699 11.7678 12.6011C12.2366 12.1322 12.5 11.4964 12.5 10.8333C12.5 10.1703 12.2366 9.53439 11.7678 9.06555C11.2989 8.5967 10.663 8.33331 10 8.33331C9.33696 8.33331 8.70107 8.5967 8.23223 9.06555C7.76339 9.53439 7.5 10.1703 7.5 10.8333C7.5 11.4964 7.76339 12.1322 8.23223 12.6011C8.70107 13.0699 9.33696 13.3333 10 13.3333ZM10 11.6666C9.77899 11.6666 9.56702 11.5788 9.41074 11.4226C9.25446 11.2663 9.16667 11.0543 9.16667 10.8333C9.16667 10.6123 9.25446 10.4003 9.41074 10.2441C9.56702 10.0878 9.77899 9.99998 10 9.99998C10.221 9.99998 10.433 10.0878 10.5893 10.2441C10.7455 10.4003 10.8333 10.6123 10.8333 10.8333C10.8333 11.0543 10.7455 11.2663 10.5893 11.4226C10.433 11.5788 10.221 11.6666 10 11.6666Z" fill="#254EDB"/>
</g>
<defs>
<clipPath id="clip0_2629_4905">
<rect width="20" height="20" fill="white"/>
</clipPath>
</defs>
</svg>
