<svg width="33" height="33" viewBox="0 0 33 33" fill="none" xmlns="http://www.w3.org/2000/svg">
<path d="M24.2247 8.206L26.2226 6.20812L28.1669 8.15237L26.169 10.1502C28.1432 12.6214 29.0962 15.7546 28.8325 18.9064C28.5687 22.0583 27.1081 24.9895 24.7507 27.0981C22.3932 29.2067 19.3179 30.3326 16.1562 30.2446C12.9946 30.1566 9.98663 28.8613 7.75014 26.6249C5.51365 24.3884 4.21839 21.3804 4.13038 18.2188C4.04236 15.0571 5.16827 11.9818 7.27687 9.62433C9.38547 7.26688 12.3167 5.80628 15.4686 5.54251C18.6204 5.27874 21.7536 6.23182 24.2247 8.206ZM16.5 27.5C17.764 27.5 19.0156 27.251 20.1833 26.7673C21.3511 26.2836 22.4121 25.5747 23.3059 24.6809C24.1997 23.7871 24.9086 22.7261 25.3923 21.5583C25.876 20.3906 26.125 19.139 26.125 17.875C26.125 16.611 25.876 15.3594 25.3923 14.1917C24.9086 13.0239 24.1997 11.9629 23.3059 11.0691C22.4121 10.1753 21.3511 9.46636 20.1833 8.98266C19.0156 8.49896 17.764 8.25 16.5 8.25C13.9473 8.25 11.4991 9.26406 9.69409 11.0691C7.88905 12.8741 6.87499 15.3223 6.87499 17.875C6.87499 20.4277 7.88905 22.8759 9.69409 24.6809C11.4991 26.4859 13.9473 27.5 16.5 27.5ZM15.125 11H17.875V19.25H15.125V11ZM11 1.375H22V4.125H11V1.375Z" fill="#3CCB7F"/>
</svg>
