<svg width="25" height="24" viewBox="0 0 25 24" fill="none" xmlns="http://www.w3.org/2000/svg">
<path d="M6.5 19H18.5V9.15698L12.5 3.70298L6.5 9.15698V19ZM19.5 21H5.5C5.23478 21 4.98043 20.8946 4.79289 20.7071C4.60536 20.5196 4.5 20.2652 4.5 20V11H1.5L11.827 1.61198C12.0111 1.44446 12.2511 1.35162 12.5 1.35162C12.7489 1.35162 12.9889 1.44446 13.173 1.61198L23.5 11H20.5V20C20.5 20.2652 20.3946 20.5196 20.2071 20.7071C20.0196 20.8946 19.7652 21 19.5 21ZM8 13H10C10 13.663 10.2634 14.2989 10.7322 14.7677C11.2011 15.2366 11.837 15.5 12.5 15.5C13.163 15.5 13.7989 15.2366 14.2678 14.7677C14.7366 14.2989 15 13.663 15 13H17C17 14.1935 16.5259 15.338 15.682 16.182C14.8381 17.0259 13.6935 17.5 12.5 17.5C11.3065 17.5 10.1619 17.0259 9.31802 16.182C8.47411 15.338 8 14.1935 8 13Z" fill="#A1A1AA"/>
</svg>
