<svg width="30" height="30" viewBox="0 0 30 30" fill="none" xmlns="http://www.w3.org/2000/svg">
<path d="M22.955 21.705L15 29.66L7.04501 21.705C5.47168 20.1317 4.40023 18.1271 3.96616 15.9448C3.53209 13.7626 3.75488 11.5006 4.60637 9.4449C5.45786 7.38924 6.8998 5.63224 8.74985 4.39608C10.5999 3.15992 12.775 2.50012 15 2.50012C17.225 2.50012 19.4001 3.15992 21.2502 4.39608C23.1002 5.63224 24.5421 7.38924 25.3936 9.4449C26.2451 11.5006 26.4679 13.7626 26.0338 15.9448C25.5998 18.1271 24.5283 20.1317 22.955 21.705ZM15 18.75C16.3261 18.75 17.5979 18.2232 18.5355 17.2856C19.4732 16.3479 20 15.0761 20 13.75C20 12.4239 19.4732 11.1522 18.5355 10.2145C17.5979 9.27681 16.3261 8.75002 15 8.75002C13.6739 8.75002 12.4022 9.27681 11.4645 10.2145C10.5268 11.1522 10 12.4239 10 13.75C10 15.0761 10.5268 16.3479 11.4645 17.2856C12.4022 18.2232 13.6739 18.75 15 18.75Z" fill="#384250"/>
</svg>
