<svg width="18" height="18" viewBox="0 0 18 18" fill="none" xmlns="http://www.w3.org/2000/svg">
<g clip-path="url(#clip0_2056_19549)">
<path d="M9 15.675L12.7125 11.9625C13.4467 11.2283 13.9466 10.2928 14.1492 9.27441C14.3517 8.25602 14.2477 7.20045 13.8503 6.24117C13.4529 5.28189 12.78 4.46198 11.9167 3.88513C11.0533 3.30827 10.0383 3.00038 9 3.00038C7.96167 3.00038 6.94666 3.30827 6.08332 3.88513C5.21997 4.46198 4.54706 5.28189 4.14969 6.24117C3.75231 7.20045 3.64831 8.25602 3.85084 9.27441C4.05337 10.2928 4.55333 11.2283 5.2875 11.9625L9 15.675ZM9 17.796L4.227 13.023C3.28301 12.079 2.64014 10.8763 2.3797 9.56689C2.11925 8.25752 2.25293 6.90032 2.76382 5.66693C3.27472 4.43353 4.13988 3.37933 5.24991 2.63764C6.35994 1.89594 7.66498 1.50006 9 1.50006C10.335 1.50006 11.6401 1.89594 12.7501 2.63764C13.8601 3.37933 14.7253 4.43353 15.2362 5.66693C15.7471 6.90032 15.8808 8.25752 15.6203 9.56689C15.3599 10.8763 14.717 12.079 13.773 13.023L9 17.796ZM9 9.75C9.39783 9.75 9.77936 9.59197 10.0607 9.31066C10.342 9.02936 10.5 8.64783 10.5 8.25C10.5 7.85218 10.342 7.47065 10.0607 7.18934C9.77936 6.90804 9.39783 6.75 9 6.75C8.60218 6.75 8.22065 6.90804 7.93934 7.18934C7.65804 7.47065 7.5 7.85218 7.5 8.25C7.5 8.64783 7.65804 9.02936 7.93934 9.31066C8.22065 9.59197 8.60218 9.75 9 9.75ZM9 11.25C8.20435 11.25 7.44129 10.9339 6.87868 10.3713C6.31607 9.80871 6 9.04565 6 8.25C6 7.45435 6.31607 6.69129 6.87868 6.12868C7.44129 5.56607 8.20435 5.25 9 5.25C9.79565 5.25 10.5587 5.56607 11.1213 6.12868C11.6839 6.69129 12 7.45435 12 8.25C12 9.04565 11.6839 9.80871 11.1213 10.3713C10.5587 10.9339 9.79565 11.25 9 11.25Z" fill="#6C737F"/>
</g>
<defs>
<clipPath id="clip0_2056_19549">
<rect width="18" height="18" fill="white"/>
</clipPath>
</defs>
</svg>
