<svg width="20" height="20" viewBox="0 0 20 20" fill="none" xmlns="http://www.w3.org/2000/svg">
<g clip-path="url(#clip0_2464_128)">
<path d="M16.6667 14.1667H18.3333V15.8333H1.66666V14.1667H3.33332V8.33332C3.33332 6.56521 4.0357 4.86952 5.28594 3.61928C6.53619 2.36904 8.23188 1.66666 9.99999 1.66666C11.7681 1.66666 13.4638 2.36904 14.714 3.61928C15.9643 4.86952 16.6667 6.56521 16.6667 8.33332V14.1667ZM15 14.1667V8.33332C15 7.00724 14.4732 5.73547 13.5355 4.79779C12.5978 3.86011 11.3261 3.33332 9.99999 3.33332C8.67391 3.33332 7.40214 3.86011 6.46446 4.79779C5.52677 5.73547 4.99999 7.00724 4.99999 8.33332V14.1667H15ZM7.49999 17.5H12.5V19.1667H7.49999V17.5Z" fill="#18181B"/>
</g>
<defs>
<clipPath id="clip0_2464_128">
<rect width="20" height="20" fill="white"/>
</clipPath>
</defs>
</svg>
