<svg width="81" height="81" viewBox="0 0 81 81" fill="none" xmlns="http://www.w3.org/2000/svg">
<path d="M62 1.5C71.665 1.5 79.5 9.33502 79.5 19V62C79.5 71.665 71.665 79.5 62 79.5H19C9.33502 79.5 1.5 71.665 1.5 62V19C1.5 9.33502 9.33502 1.5 19 1.5H62Z" fill="#254EDB"/>
<path d="M62 1.5C71.665 1.5 79.5 9.33502 79.5 19V62C79.5 71.665 71.665 79.5 62 79.5H19C9.33502 79.5 1.5 71.665 1.5 62V19C1.5 9.33502 9.33502 1.5 19 1.5H62Z" stroke="url(#paint0_linear_1871_7125)" stroke-width="3"/>
<g clip-path="url(#clip0_1871_7125)">
<path d="M23.2383 63L32.2646 59.748L33.293 50.2998L27.1055 52.4092L23.2383 63Z" fill="#C6D4F1"/>
<path d="M40.5352 62.5869L49.1309 59.3789L47.5576 49.9658L40.5791 52.8047L40.5352 62.5869Z" fill="#C6D4F1"/>
<path d="M49.1309 59.3789L57.7617 62.666L54.1318 52.2773L47.5576 49.9658L49.1309 59.3789Z" fill="#A0B6EA"/>
<path d="M32.2646 59.748L40.5352 62.5869L40.5791 52.8047L33.293 50.2998L32.2646 59.748Z" fill="#A0B6EA"/>
<path d="M54.668 32.168C54.6768 24.3457 48.3398 17.9912 40.5088 17.9824C32.6777 17.9736 26.332 24.3193 26.332 32.1416C26.332 32.8623 26.3848 33.5918 26.499 34.3037L26.5078 34.4004C27.9844 46.3975 40.5176 54.2988 40.5176 54.2988C40.5176 54.2988 53.0684 47.1709 54.5186 34.4092C54.5273 34.3389 54.5361 34.2598 54.5361 34.1807C54.624 33.5127 54.668 32.8447 54.668 32.168Z" fill="#F9F5FF"/>
<path d="M48.7441 29.7335C48.6826 28.6612 47.7685 26.0509 44.5781 25.8048C43.3564 25.7081 42.2402 26.42 41.4492 26.9825C41.1416 27.2198 40.5351 27.7911 40.3857 27.7735C40.2012 27.7647 39.6475 27.211 39.3486 26.9737C38.5576 26.4024 37.4502 25.6905 36.2197 25.7784C33.0205 26.0157 32.0976 28.6173 32.0273 29.6895C31.6934 35.2179 38.3291 39.6124 40.3594 40.4298C42.3808 39.6212 49.043 35.2706 48.7441 29.7335Z" fill="#254EDB"/>
</g>
<defs>
<linearGradient id="paint0_linear_1871_7125" x1="40.5" y1="3" x2="40.5" y2="78" gradientUnits="userSpaceOnUse">
<stop stop-color="white"/>
<stop offset="1" stop-color="white" stop-opacity="0"/>
</linearGradient>
<clipPath id="clip0_1871_7125">
<rect width="45" height="45" fill="white" transform="translate(18 18)"/>
</clipPath>
</defs>
</svg>
