<svg width="32" height="32" viewBox="0 0 32 32" fill="none" xmlns="http://www.w3.org/2000/svg">
<path opacity="0.4" d="M29.3196 8.02663C29.3463 8.34663 29.3197 8.67995 29.2397 9.01329L24.7463 27.0532C24.4263 28.3999 23.2263 29.3333 21.8397 29.3333H4.31965C2.30631 29.3333 0.879669 27.3599 1.46634 25.4266L7.07966 7.38658C7.46632 6.13324 8.62634 5.27997 9.93301 5.27997H26.333C27.613 5.27997 28.653 6.03996 29.093 7.10663C29.2263 7.38663 29.293 7.70663 29.3196 8.02663Z" fill="#254EDB"/>
<path d="M30.6533 26.16C30.7867 27.88 29.4267 29.3333 27.7067 29.3333H21.84C23.2267 29.3333 24.4267 28.4 24.7467 27.0533L29.24 9.01335C29.32 8.68001 29.3467 8.34669 29.32 8.02669L29.3333 8L30.6533 26.16Z" fill="#254EDB"/>
<path d="M12.9066 9.5067C12.8266 9.5067 12.7466 9.49334 12.6666 9.48001C12.1333 9.34667 11.8 8.81338 11.9333 8.26671L13.32 2.5067C13.4533 1.97337 13.9866 1.65338 14.5333 1.77338C15.0666 1.90672 15.4 2.44001 15.2667 2.98668L13.88 8.74669C13.7733 9.20002 13.36 9.5067 12.9066 9.5067Z" fill="#254EDB"/>
<path d="M21.84 9.51998C21.7733 9.51998 21.6933 9.51995 21.6267 9.49329C21.0933 9.37329 20.7467 8.83993 20.8533 8.3066L22.1066 2.51998C22.2266 1.97331 22.76 1.63996 23.2933 1.74662C23.8267 1.86662 24.1733 2.39998 24.0666 2.93331L22.8133 8.71993C22.72 9.19993 22.3067 9.51998 21.84 9.51998Z" fill="#254EDB"/>
<path d="M20.9333 17H10.2667C9.72001 17 9.26668 16.5467 9.26668 16C9.26668 15.4533 9.72001 15 10.2667 15H20.9333C21.48 15 21.9333 15.4533 21.9333 16C21.9333 16.5467 21.48 17 20.9333 17Z" fill="#254EDB"/>
<path d="M19.6 22.3333H8.93335C8.38668 22.3333 7.93335 21.88 7.93335 21.3333C7.93335 20.7866 8.38668 20.3333 8.93335 20.3333H19.6C20.1467 20.3333 20.6 20.7866 20.6 21.3333C20.6 21.88 20.1467 22.3333 19.6 22.3333Z" fill="#254EDB"/>
</svg>
