<svg width="25" height="24" viewBox="0 0 25 24" fill="none" xmlns="http://www.w3.org/2000/svg">
<path d="M17.584 15.812C18.5244 14.8184 19.153 13.571 19.3922 12.224C19.6314 10.8769 19.4706 9.48938 18.9297 8.23277C18.3888 6.97615 17.4916 5.90556 16.3489 5.15334C15.2062 4.40112 13.8681 4.00023 12.5 4.00023C11.1319 4.00023 9.79384 4.40112 8.65112 5.15334C7.50841 5.90556 6.61117 6.97615 6.0703 8.23277C5.52943 9.48938 5.36863 10.8769 5.6078 12.224C5.84696 13.571 6.4756 14.8184 7.416 15.812C7.95567 14.9508 8.70536 14.241 9.59467 13.7491C10.484 13.2572 11.4837 12.9994 12.5 13C13.5163 12.9994 14.516 13.2572 15.4053 13.7491C16.2946 14.241 17.0443 14.9508 17.584 15.812ZM8.885 17.285L12.5 20.899L16.115 17.285C15.7908 16.6005 15.279 16.0222 14.639 15.6172C13.9991 15.2122 13.2573 14.9972 12.5 14.9972C11.7427 14.9972 11.0009 15.2122 10.361 15.6172C9.72101 16.0222 9.20919 16.6005 8.885 17.285ZM12.5 23.728L6.136 17.364C4.87734 16.1053 4.02019 14.5017 3.67293 12.7558C3.32567 11.01 3.50391 9.20041 4.1851 7.55588C4.86629 5.91136 6.01984 4.50575 7.49988 3.51683C8.97992 2.5279 10.72 2.00006 12.5 2.00006C14.28 2.00006 16.0201 2.5279 17.5001 3.51683C18.9802 4.50575 20.1337 5.91136 20.8149 7.55588C21.4961 9.20041 21.6743 11.01 21.3271 12.7558C20.9798 14.5017 20.1227 16.1053 18.864 17.364L12.5 23.728ZM12.5 9.99998C12.7652 9.99998 13.0196 9.89463 13.2071 9.70709C13.3946 9.51955 13.5 9.2652 13.5 8.99998C13.5 8.73477 13.3946 8.48041 13.2071 8.29288C13.0196 8.10534 12.7652 7.99998 12.5 7.99998C12.2348 7.99998 11.9804 8.10534 11.7929 8.29288C11.6054 8.48041 11.5 8.73477 11.5 8.99998C11.5 9.2652 11.6054 9.51955 11.7929 9.70709C11.9804 9.89463 12.2348 9.99998 12.5 9.99998ZM12.5 12C11.7044 12 10.9413 11.6839 10.3787 11.1213C9.81607 10.5587 9.5 9.79563 9.5 8.99998C9.5 8.20433 9.81607 7.44127 10.3787 6.87866C10.9413 6.31605 11.7044 5.99998 12.5 5.99998C13.2957 5.99998 14.0587 6.31605 14.6213 6.87866C15.1839 7.44127 15.5 8.20433 15.5 8.99998C15.5 9.79563 15.1839 10.5587 14.6213 11.1213C14.0587 11.6839 13.2957 12 12.5 12Z" fill="#A1A1AA"/>
</svg>
